<?xml version="1.0" encoding="utf-8"?>
<!-- Generator: Adobe Illustrator 23.0.1, SVG Export Plug-In . SVG Version: 6.00 Build 0)  -->
<svg version="1.1" id="_x34_03-Forbidden_2" xmlns="http://www.w3.org/2000/svg" xmlns:xlink="http://www.w3.org/1999/xlink"
	 x="0px" y="0px" viewBox="0 0 288 288" style="enable-background:new 0 0 288 288;" xml:space="preserve">
<metadata><?xpacket begin="﻿" id="W5M0MpCehiHzreSzNTczkc9d"?>
<x:xmpmeta xmlns:x="adobe:ns:meta/" x:xmptk="XMP Core 5.6.0">
   <rdf:RDF xmlns:rdf="http://www.w3.org/1999/02/22-rdf-syntax-ns#">
      <rdf:Description rdf:about=""/>
   </rdf:RDF>
</x:xmpmeta>
<?xpacket end="w"?></metadata>
<style type="text/css">
	.st0{fill:#B72929;}
	.st1{fill:#ad7fb1;}
	.st2{fill:none;stroke:#FFF200;stroke-miterlimit:10;}
</style>
<circle class="st0" cx="144" cy="144" r="144"/>
<polygon class="st1" points="95.05,262.18 25.82,192.95 25.82,95.05 95.05,25.82 192.95,25.82 262.18,95.05 262.18,192.95
	192.95,262.18 "/>
<path class="st2" d="M90,72"/>
<path class="st0" d="M193.5,110.7V94.5c0-30.98-25.17-49.5-49.5-49.5S94.5,63.52,94.5,94.5v16.2H71.1v113.4h145.8V110.7H193.5z
	 M160.2,207.9H144h0h-16.2l7.21-43.23c-4.34-2.91-7.21-7.85-7.21-13.47c0-8.95,7.25-16.2,16.2-16.2c8.95,0,16.2,7.25,16.2,16.2
	c0,5.62-2.86,10.56-7.2,13.47L160.2,207.9z M175.5,110.7h-63V94.5c0-20.46,16.23-31.5,31.5-31.5c15.27,0,31.5,11.04,31.5,31.5V110.7
	z"/>
</svg>
