<?xml version="1.0" encoding="utf-8"?>
<!-- Generator: Adobe Illustrator 22.0.0, SVG Export Plug-In . SVG Version: 6.00 Build 0)  -->
<svg version="1.1" xmlns="http://www.w3.org/2000/svg" xmlns:xlink="http://www.w3.org/1999/xlink" x="0px" y="0px"
	 viewBox="0 0 500 500" style="enable-background:new 0 0 500 500;" xml:space="preserve">
<style type="text/css">
	.st0{opacity:0.1;fill:black;}
	.st1{fill:#ba26c7;;}
	.st2{opacity:0.2;}
	.st3{fill:#231F20;}
	.st4{fill:#F1F2F2;}
	.st5{fill:#E6E7E8;}
	.st6{fill:#FFFFFF;}
	.st7{fill:#414042;}
	.st8{fill:#B2875D;}
	.st9{opacity:0.1;}
	.st10{fill:#C49A6C;}
</style>
<g id="BACKGROUND_2">
</g>
<g id="BACKGROUND_1">
	<g>
		<g>
			<path class="st0" d="M485,429.1c0,10.3-103,9-230,9c-127,0-230,1.3-230-9c0-10.3,103-18.7,230-18.7
				C382,410.4,485,418.7,485,429.1z"/>
			<g>
				<g>
					<g>
						<path class="st1" d="M335.8,175.2c0,46.2-37.5,83.7-83.7,83.7c-46.2,0-83.7-37.5-83.7-83.7c0-46.2,37.5-83.7,83.7-83.7
							C298.3,91.5,335.8,129,335.8,175.2z"/>
						<g>
							<path class="st1" d="M307.7,106.4c0,43.8-35.5,79.4-79.4,79.4c-43.8,0-79.3-35.5-79.3-79.4c0-43.8,35.5-79.3,79.3-79.3
								C272.2,27,307.7,62.5,307.7,106.4z"/>
							<path class="st1" d="M352.8,101.2c0,24.2-19.6,43.9-43.9,43.9c-24.2,0-43.9-19.6-43.9-43.9c0-24.2,19.6-43.9,43.9-43.9
								C333.2,57.4,352.8,77,352.8,101.2z"/>
							<path class="st1" d="M279.9,163.9c0,44.7-36.3,81-81,81c-44.7,0-81-36.3-81-81c0-44.7,36.3-81,81-81
								C243.6,82.9,279.9,119.2,279.9,163.9z"/>
							<path class="st1" d="M395,169.8c0,41.3-33.5,74.7-74.7,74.7c-41.3,0-74.7-33.5-74.7-74.7c0-41.3,33.5-74.7,74.7-74.7
								C361.6,95.1,395,128.6,395,169.8z"/>
						</g>
					</g>
					<g>
						<g class="st2">
							<polygon class="st3" points="294.4,80.3 294.5,80.3 194,80.3 194,237.2 340.2,237.9 321.8,107.8 							"/>
						</g>
						<g>
							<polygon class="st4" points="288.9,78.5 288.9,78.4 188.5,78.4 188.5,235.3 318.8,235.3 318.8,108.4 							"/>
						</g>
						<g>
							<rect x="196" y="90.5" class="st5" width="99.6" height="1.7"/>
							<rect x="196" y="106" class="st5" width="115.7" height="1.7"/>
							<rect x="196" y="121.4" class="st5" width="115.7" height="1.7"/>
							<rect x="196" y="136.8" class="st5" width="115.7" height="1.7"/>
							<rect x="196" y="152.2" class="st5" width="115.7" height="1.7"/>
							<rect x="196" y="167.7" class="st5" width="115.7" height="1.7"/>
							<rect x="196" y="183.1" class="st5" width="115.7" height="1.7"/>
							<rect x="196" y="198.5" class="st5" width="115.7" height="1.7"/>
							<rect x="196" y="213.9" class="st5" width="115.7" height="1.7"/>
							<rect x="196" y="229.4" class="st5" width="115.7" height="1.7"/>
						</g>
						<polygon class="st6" points="318.8,108.4 288.9,108.4 288.9,78.5 						"/>
						<g>
							<g>
								<g>
									<path class="st6" d="M243.2,134.2c0,10.1-8.2,18.3-18.3,18.3c-10.1,0-18.3-8.2-18.3-18.3c0-10.1,8.2-18.3,18.3-18.3
										C235,115.8,243.2,124,243.2,134.2z"/>
									<path class="st7" d="M238.4,134.2c0,7.5-6.1,13.6-13.6,13.6s-13.6-6.1-13.6-13.6c0-7.5,6.1-13.6,13.6-13.6
										S238.4,126.7,238.4,134.2z"/>
									<path class="st6" d="M225.4,124.8c0,2.6-2.1,4.6-4.6,4.6c-2.6,0-4.6-2.1-4.6-4.6c0-2.6,2.1-4.6,4.6-4.6
										C223.3,120.1,225.4,122.2,225.4,124.8z"/>
									<path class="st6" d="M218.4,134.5c0,1.3-1,2.3-2.3,2.3c-1.3,0-2.3-1-2.3-2.3c0-1.3,1-2.3,2.3-2.3
										C217.3,132.2,218.4,133.2,218.4,134.5z"/>
									<path class="st6" d="M224.7,140.7c0,1.9-1.6,3.5-3.5,3.5c-1.9,0-3.5-1.6-3.5-3.5c0-1.9,1.6-3.5,3.5-3.5
										C223.1,137.2,224.7,138.8,224.7,140.7z"/>
									<path class="st6" d="M236.6,136.4c-4.1,0.6-4.6,1.1-5.2,5.2c-0.6-4.1-1.1-4.6-5.2-5.2c4.1-0.6,4.6-1.1,5.2-5.2
										C232,135.2,232.5,135.7,236.6,136.4z"/>
								</g>
								<g>
									<path class="st6" d="M302,134.2c0,10.1-8.2,18.3-18.3,18.3c-10.1,0-18.3-8.2-18.3-18.3c0-10.1,8.2-18.3,18.3-18.3
										C293.8,115.8,302,124,302,134.2z"/>
									<path class="st7" d="M297.3,134.2c0,7.5-6.1,13.6-13.6,13.6c-7.5,0-13.6-6.1-13.6-13.6c0-7.5,6.1-13.6,13.6-13.6
										C291.2,120.6,297.3,126.7,297.3,134.2z"/>
									<path class="st6" d="M284.2,124.8c0,2.6-2.1,4.6-4.6,4.6c-2.6,0-4.6-2.1-4.6-4.6c0-2.6,2.1-4.6,4.6-4.6
										C282.1,120.1,284.2,122.2,284.2,124.8z"/>
									<path class="st6" d="M277.2,134.5c0,1.3-1,2.3-2.3,2.3c-1.3,0-2.3-1-2.3-2.3c0-1.3,1-2.3,2.3-2.3
										C276.2,132.2,277.2,133.2,277.2,134.5z"/>
									<path class="st6" d="M283.5,140.7c0,1.9-1.6,3.5-3.5,3.5s-3.5-1.6-3.5-3.5c0-1.9,1.6-3.5,3.5-3.5S283.5,138.8,283.5,140.7z
										"/>
									<path class="st6" d="M295.4,136.4c-4.1,0.6-4.6,1.1-5.2,5.2c-0.6-4.1-1.1-4.6-5.2-5.2c4.1-0.6,4.6-1.1,5.2-5.2
										C290.8,135.2,291.3,135.7,295.4,136.4z"/>
								</g>
							</g>
							<g>
								<g>
									<path class="st7" d="M278.2,186.5c-1.5,0-2.7-1.2-2.7-2.7c0-11.7-9.5-21.3-21.3-21.3c-11.7,0-21.3,9.5-21.3,21.3
										c0,1.5-1.2,2.7-2.7,2.7c-1.5,0-2.7-1.2-2.7-2.7c0-14.7,12-26.7,26.7-26.7c14.7,0,26.7,12,26.7,26.7
										C281,185.3,279.8,186.5,278.2,186.5z"/>
								</g>
							</g>
						</g>
					</g>
				</g>
				<g>
					<g>
						<g>
							<polygon class="st8" points="407.1,427.8 99.9,427.8 99.9,191 407.1,191 							"/>
						</g>
						<g>
							<g class="st9">
								<rect x="100.1" y="290.1" class="st6" width="31.2" height="17.1"/>
							</g>
							<g class="st9">
								<rect x="100.1" y="330" class="st6" width="31.2" height="17.1"/>
							</g>
							<g class="st9">
								<rect x="100.1" y="369.8" class="st6" width="31.2" height="17.1"/>
							</g>
							<g class="st9">
								<rect x="375.9" y="290.1" class="st6" width="31.2" height="17.1"/>
							</g>
							<g class="st9">
								<rect x="375.9" y="330" class="st6" width="31.2" height="17.1"/>
							</g>
							<g class="st9">
								<rect x="375.9" y="369.8" class="st6" width="31.2" height="17.1"/>
							</g>
						</g>
					</g>
					<g>
						<g>
							<polygon class="st10" points="466.5,254.4 403.3,195 407.1,191 470.3,250.4 							"/>
						</g>
						<g>
							<polygon class="st10" points="40.5,254.4 103.7,195 99.9,191 36.8,250.4 							"/>
						</g>
						<g>
							<polygon class="st10" points="427.6,269.8 79.4,269.8 99.9,191 407.1,191 							"/>
						</g>
					</g>
				</g>
			</g>
		</g>
		<g>
			<g>
				<path class="st7" d="M211.5,334.2h8.5v15.2h-8.5v17.8h-19.6v-17.8h-33.6l-1.2-12.1l34.8-54.5v-0.2h19.6V334.2z M174,334.2h17.9
					v-26.3l-0.3-0.1l-2.1,4.4L174,334.2z"/>
				<path class="st7" d="M287.1,336.1c0,10.1-2.7,18-8.1,23.7s-12.5,8.6-21.3,8.6c-8.9,0-16.1-2.9-21.4-8.6
					c-5.4-5.7-8.1-13.6-8.1-23.7v-22.4c0-10.1,2.7-18,8-23.7s12.5-8.6,21.4-8.6c8.8,0,16,2.9,21.4,8.6c5.4,5.7,8.1,13.6,8.1,23.7
					V336.1z M267.5,312.4c0-5.1-0.9-9.1-2.6-11.8c-1.8-2.7-4.2-4.1-7.3-4.1c-3.1,0-5.6,1.4-7.3,4.1c-1.7,2.7-2.6,6.6-2.6,11.8v25
					c0,5.3,0.9,9.2,2.6,11.9c1.7,2.7,4.2,4,7.3,4c3.1,0,5.5-1.3,7.2-4s2.6-6.7,2.6-11.9V312.4z"/>
				<path class="st7" d="M349.3,334.2h8.5v15.2h-8.5v17.8h-19.6v-17.8h-33.6l-1.2-12.1l34.8-54.5v-0.2h19.6V334.2z M311.7,334.2
					h17.9v-26.3l-0.3-0.1l-2.1,4.4L311.7,334.2z"/>
			</g>
			<g>
				<path class="st7" d="M163.1,389.6v7.6h-0.7v-17.6h5.5c1.8,0,3.2,0.5,4.2,1.4c1,0.9,1.5,2.1,1.5,3.6c0,1.5-0.5,2.8-1.5,3.7
					c-1,0.9-2.4,1.4-4.2,1.4H163.1z M163.1,389h4.9c1.7,0,2.9-0.4,3.8-1.2c0.8-0.8,1.3-1.9,1.3-3.1c0-1.3-0.4-2.3-1.3-3.2
					s-2.1-1.2-3.8-1.2h-4.9V389z"/>
				<path class="st7" d="M185,391.9h-8.6l-2,5.3h-0.7l6.6-17.6h0.8l6.6,17.6h-0.7L185,391.9z M176.6,391.3h8.1l-3.7-9.9l-0.3-1h-0.1
					l-0.3,1L176.6,391.3z"/>
				<path class="st7" d="M202.7,394.8c-0.4,0.6-1.1,1.2-2.1,1.8c-1.1,0.6-2.3,0.8-3.9,0.8c-2,0-3.7-0.7-4.9-2.2
					c-1.3-1.4-1.9-3.3-1.9-5.6v-2.9c0-2.2,0.6-4,1.8-5.4c1.2-1.4,2.8-2.1,4.8-2.1c1.9,0,3.4,0.5,4.5,1.5c1.1,1,1.7,2.2,1.6,3.7
					l0,0.1h-0.5c0-1.3-0.5-2.5-1.4-3.3c-1-0.9-2.3-1.3-4.1-1.3c-1.8,0-3.2,0.6-4.3,1.9c-1.1,1.3-1.6,2.9-1.6,4.9v2.9
					c0,2.1,0.6,3.8,1.7,5.1c1.1,1.3,2.6,2,4.5,2c1.4,0,2.6-0.2,3.5-0.7c0.9-0.5,1.5-1,1.9-1.6v-5h-5.4v-0.7h6V394.8z"/>
				<path class="st7" d="M216.7,388.3h-8.5v8.2h9.7v0.7h-10.4v-17.6H218v0.7h-9.7v7.5h8.5V388.3z"/>
				<path class="st7" d="M239.9,397.2h-0.7L228,380.8l-0.1,0v16.4h-0.7v-17.6h0.7l11.3,16.4l0.1,0v-16.3h0.7V397.2z"/>
				<path class="st7" d="M257.2,389.7c0,2.4-0.6,4.3-1.8,5.7c-1.2,1.4-2.8,2.1-4.9,2.1c-2.1,0-3.7-0.7-4.9-2.1
					c-1.2-1.4-1.8-3.3-1.8-5.7v-2.6c0-2.4,0.6-4.3,1.8-5.7c1.2-1.4,2.8-2.1,4.9-2.1c2.1,0,3.7,0.7,4.9,2.1s1.8,3.3,1.8,5.7V389.7z
					 M256.6,387c0-2.2-0.5-3.9-1.6-5.2c-1-1.3-2.5-1.9-4.4-1.9c-1.9,0-3.4,0.6-4.4,1.9c-1,1.3-1.5,3-1.5,5.2v2.7
					c0,2.2,0.5,3.9,1.6,5.2c1,1.3,2.5,1.9,4.4,1.9s3.4-0.6,4.4-1.9c1-1.3,1.5-3,1.5-5.2V387z"/>
				<path class="st7" d="M272.6,380.2h-6.2v17h-0.7v-17h-6.6v-0.7h13.4V380.2z"/>
				<path class="st7" d="M291,388.5h-8.7v8.7h-0.7v-17.6h10.5v0.7h-9.9v7.6h8.7V388.5z"/>
				<path class="st7" d="M307.8,389.7c0,2.4-0.6,4.3-1.8,5.7c-1.2,1.4-2.8,2.1-4.9,2.1c-2.1,0-3.7-0.7-4.9-2.1s-1.8-3.3-1.8-5.7
					v-2.6c0-2.4,0.6-4.3,1.8-5.7c1.2-1.4,2.8-2.1,4.9-2.1c2.1,0,3.7,0.7,4.9,2.1s1.8,3.3,1.8,5.7V389.7z M307.1,387
					c0-2.2-0.5-3.9-1.6-5.2c-1-1.3-2.5-1.9-4.4-1.9c-1.9,0-3.4,0.6-4.4,1.9c-1,1.3-1.5,3-1.5,5.2v2.7c0,2.2,0.5,3.9,1.6,5.2
					s2.5,1.9,4.4,1.9s3.4-0.6,4.4-1.9c1-1.3,1.5-3,1.5-5.2V387z"/>
				<path class="st7" d="M323.7,379.6v11.7c0,1.9-0.6,3.4-1.7,4.5s-2.6,1.6-4.3,1.6c-1.8,0-3.2-0.5-4.3-1.6
					c-1.1-1.1-1.7-2.6-1.7-4.5v-11.7h0.7v11.7c0,1.7,0.5,3,1.5,4c1,1,2.3,1.5,3.9,1.5c1.5,0,2.8-0.5,3.8-1.5c1-1,1.5-2.3,1.5-4
					v-11.7H323.7z"/>
				<path class="st7" d="M341,397.2h-0.7l-11.3-16.4l-0.1,0v16.4h-0.7v-17.6h0.7l11.3,16.4l0.1,0v-16.3h0.7V397.2z"/>
				<path class="st7" d="M345.8,397.2v-17.6h5.2c2,0,3.7,0.7,5.2,2.2c1.4,1.5,2.1,3.3,2.1,5.6v2.2c0,2.3-0.7,4.1-2.1,5.6
					c-1.4,1.4-3.1,2.2-5.2,2.2H345.8z M346.5,380.2v16.3h4.6c1.8,0,3.4-0.7,4.7-2c1.3-1.3,1.9-3,1.9-5.1v-2.2c0-2-0.6-3.7-1.9-5
					c-1.3-1.3-2.9-2-4.7-2H346.5z"/>
			</g>
		</g>
	</g>
</g>
<g id="DESIGNED_BY_FREEPIK">
</g>
</svg>
