<svg id="logo" xmlns="http://www.w3.org/2000/svg" viewBox="0 0 210.33 180.18"><defs><style>.cls-1{fill:#ba26c7;}</style></defs><title>logo</title><path class="cls-1" d="M204.71,28.46V153.55a8,8,0,0,1-8,8V20.47A8,8,0,0,1,204.71,28.46Z"/><polygon class="cls-1" points="153.88 96.06 153.88 161.53 113.41 161.53 131.25 103.64 131.25 96.06 153.88 96.06"/><rect class="cls-1" x="131.25" y="20.47" width="22.63" height="52.95"/><polygon class="cls-1" points="88.13 20.47 88.13 103.64 84.67 118.41 82.02 118.41 53 20.47 88.13 20.47"/><path class="cls-1" d="M13.6,20.47,53,161.53H13.6a8,8,0,0,1-8-8V28.46A8,8,0,0,1,13.6,20.47Z"/></svg>