<svg xmlns="http://www.w3.org/2000/svg" viewBox="0 0 34.74 34.96"><defs><style>.cls-1{fill:#66a820;}.cls-2{fill:#2050a8;}</style></defs><title>zlight logo</title><g id="Layer_45" data-name="Layer 45"><rect class="cls-1" x="-3.46" y="16.62" width="38.84" height="0.47" transform="translate(-7.24 16.22) rotate(-45)"/><rect x="-3.62" y="17.55" width="41.17" height="0.5" transform="translate(-7.61 17.21) rotate(-45)"/><rect class="cls-1" x="-1.5" y="18.64" width="38.99" height="0.47" transform="translate(-8.07 18.25) rotate(-45)"/><path class="cls-2" d="M26.07,4.72a.86.86,0,0,0-.61-1.47H8a.86.86,0,0,0-.86.86V8.68A.86.86,0,0,0,8,9.54H20.91a.86.86,0,0,0,.61-.25Z"/><path class="cls-2" d="M8.34,30.39a.76.76,0,0,0,.54,1.3H26.67a.76.76,0,0,0,.76-.76V26.14a.76.76,0,0,0-.76-.76h-13a.76.76,0,0,0-.54.22Z"/></g></svg>