<svg id="Layer_1" data-name="Layer 1" xmlns="http://www.w3.org/2000/svg" width="22" height="22" viewBox="0 0 22 22"><defs><style>.cls-1{fill:#043f60;}.cls-2{fill:#009cff;}</style></defs><title>Artboard 1</title><polygon class="cls-1" points="14.6 17.5 14.6 3.5 13.72 3.5 13.72 18.31 13.78 18.31 13.78 18.37 19.04 18.37 19.04 17.5 14.6 17.5"/><path class="cls-2" d="M7.51,9a2.79,2.79,0,0,1-1-.87A2.34,2.34,0,0,1,6.27,7a1.58,1.58,0,0,1,.17-.83.56.56,0,0,1,.51-.27.48.48,0,0,1,.44.2,2.07,2.07,0,0,1,.13.94V8.14H11V7.58a6.21,6.21,0,0,0-.33-2.4A2.57,2.57,0,0,0,9.28,4a5.86,5.86,0,0,0-2.46-.47A5.38,5.38,0,0,0,4.57,4,2.81,2.81,0,0,0,3.22,5.14a5.17,5.17,0,0,0-.42,2.39A5,5,0,0,0,3.1,9.4a3.11,3.11,0,0,0,.74,1.14,17,17,0,0,0,1.83,1.33A10.93,10.93,0,0,1,7.4,13.16a2.67,2.67,0,0,1,.34,1.64,1.65,1.65,0,0,1-.18.86A.6.6,0,0,1,7,16a.56.56,0,0,1-.51-.23,2.28,2.28,0,0,1-.15-1V13H2.92v.93a7.34,7.34,0,0,0,.33,2.47A2.76,2.76,0,0,0,4.62,17.8a5.31,5.31,0,0,0,2.54.56,5.44,5.44,0,0,0,2.37-.49,2.79,2.79,0,0,0,1.38-1.21,5.32,5.32,0,0,0,.36-2.24,5.52,5.52,0,0,0-.64-3A10.55,10.55,0,0,0,7.51,9Z"/></svg>