<svg xmlns="http://www.w3.org/2000/svg" width="100.81" height="19" viewBox="0 0 100.81 19"><defs><style>.cls-1{fill:#043f60;}.cls-2{fill:#009cff;}</style></defs><title>wordLogo</title><g id="Layer_2" data-name="Layer 2"><path class="cls-1" d="M55,16.56H54.1V2.43H55Z" transform="translate(-2.31 -2.03)"/><path class="cls-1" d="M62,16.74a4.09,4.09,0,0,1-3.25-1.33,5.45,5.45,0,0,1-1.16-3.72,5.93,5.93,0,0,1,1.13-3.78,3.67,3.67,0,0,1,3-1.42,3.23,3.23,0,0,1,2.66,1.22,5.14,5.14,0,0,1,1,3.31v.73H58.53a4.78,4.78,0,0,0,.92,3.11A3.18,3.18,0,0,0,62,15.93a7.76,7.76,0,0,0,1.44-.12A8.53,8.53,0,0,0,65,15.3v.82a6.79,6.79,0,0,1-1.49.5A8,8,0,0,1,62,16.74ZM61.77,7.3a2.82,2.82,0,0,0-2.21.94,4.52,4.52,0,0,0-1,2.71h5.91a4.41,4.41,0,0,0-.72-2.68A2.35,2.35,0,0,0,61.77,7.3Z" transform="translate(-2.31 -2.03)"/><path class="cls-1" d="M71.55,6.5a3.86,3.86,0,0,1,1.79.39,3.62,3.62,0,0,1,1.35,1.34h.05Q74.69,7.08,74.69,6V2.43h.86V16.56H75l-.22-1.51h-.07a3.5,3.5,0,0,1-3.13,1.69,3.69,3.69,0,0,1-3-1.27,5.71,5.71,0,0,1-1-3.71,6.35,6.35,0,0,1,1-3.92A3.57,3.57,0,0,1,71.55,6.5Zm0,.82a2.67,2.67,0,0,0-2.35,1.14,5.77,5.77,0,0,0-.79,3.3q0,4.2,3.16,4.2a2.82,2.82,0,0,0,2.37-1,5.29,5.29,0,0,0,.76-3.21v-.15a5.64,5.64,0,0,0-.74-3.29A2.79,2.79,0,0,0,71.55,7.31Z" transform="translate(-2.31 -2.03)"/><path class="cls-1" d="M86.21,6.69v.63l-2,.13A3.56,3.56,0,0,1,85,9.68,3.07,3.07,0,0,1,84.11,12a3.4,3.4,0,0,1-2.47.89,5.16,5.16,0,0,1-.91-.05,2.29,2.29,0,0,0-.79.66,1.37,1.37,0,0,0-.27.81A.75.75,0,0,0,80,15a2.3,2.3,0,0,0,1.16.22h1.67a3.79,3.79,0,0,1,2.38.65,2.3,2.3,0,0,1,.83,1.92,2.76,2.76,0,0,1-1.23,2.41,6.09,6.09,0,0,1-3.49.85,4.69,4.69,0,0,1-2.79-.72,2.33,2.33,0,0,1-1-2,2.42,2.42,0,0,1,.61-1.69,3.14,3.14,0,0,1,1.66-.92,1.69,1.69,0,0,1-.69-.54,1.31,1.31,0,0,1-.26-.8,2.11,2.11,0,0,1,1.22-1.74,2.75,2.75,0,0,1-1.3-1.11,3.26,3.26,0,0,1-.47-1.74,3.18,3.18,0,0,1,.91-2.38,3.35,3.35,0,0,1,2.46-.9,4.38,4.38,0,0,1,1.46.19ZM78.48,18.23q0,2,2.93,2,3.76,0,3.76-2.48a1.45,1.45,0,0,0-.59-1.29,3.49,3.49,0,0,0-1.91-.4H81.11Q78.48,16.1,78.48,18.23Zm.73-8.47a2.32,2.32,0,0,0,.67,1.78,2.93,2.93,0,0,0,3.63,0,2.44,2.44,0,0,0,.64-1.82,2.52,2.52,0,0,0-.65-1.89,2.53,2.53,0,0,0-1.83-.63,2.38,2.38,0,0,0-1.8.68A2.6,2.6,0,0,0,79.21,9.77Z" transform="translate(-2.31 -2.03)"/><path class="cls-1" d="M92,16.74a4.09,4.09,0,0,1-3.25-1.33,5.45,5.45,0,0,1-1.16-3.72,5.93,5.93,0,0,1,1.13-3.78,3.67,3.67,0,0,1,3-1.42,3.23,3.23,0,0,1,2.66,1.22,5.14,5.14,0,0,1,1,3.31v.73H88.54a4.78,4.78,0,0,0,.92,3.11A3.18,3.18,0,0,0,92,15.93a7.76,7.76,0,0,0,1.44-.12A8.53,8.53,0,0,0,95,15.3v.82a6.79,6.79,0,0,1-1.49.5A8,8,0,0,1,92,16.74ZM91.78,7.3a2.82,2.82,0,0,0-2.21.94,4.52,4.52,0,0,0-1,2.71h5.91a4.41,4.41,0,0,0-.72-2.68A2.35,2.35,0,0,0,91.78,7.3Z" transform="translate(-2.31 -2.03)"/><path class="cls-1" d="M101.82,6.5a7.23,7.23,0,0,1,1.3.13l-.17.86a4.93,4.93,0,0,0-1.24-.15,2.38,2.38,0,0,0-2,1.07,4.47,4.47,0,0,0-.78,2.71v5.45h-.87V6.69h.74l.09,1.78h.06a4.15,4.15,0,0,1,1.26-1.53A2.87,2.87,0,0,1,101.82,6.5Z" transform="translate(-2.31 -2.03)"/><path class="cls-2" d="M7,7.48a2.79,2.79,0,0,1-1-.87,2.34,2.34,0,0,1-.19-1.07,1.58,1.58,0,0,1,.17-.83.56.56,0,0,1,.51-.27.48.48,0,0,1,.44.2A2.07,2.07,0,0,1,7,5.58V6.64h3.44V6.08a6.21,6.21,0,0,0-.33-2.4A2.57,2.57,0,0,0,8.78,2.5,5.86,5.86,0,0,0,6.32,2a5.38,5.38,0,0,0-2.25.43A2.81,2.81,0,0,0,2.72,3.64,5.17,5.17,0,0,0,2.31,6,5,5,0,0,0,2.6,7.9,3.11,3.11,0,0,0,3.34,9a17,17,0,0,0,1.83,1.33A10.93,10.93,0,0,1,6.9,11.66a2.67,2.67,0,0,1,.34,1.64,1.65,1.65,0,0,1-.18.86.6.6,0,0,1-.55.29A.56.56,0,0,1,6,14.22a2.28,2.28,0,0,1-.15-1V11.46H2.42v.93a7.34,7.34,0,0,0,.33,2.47A2.76,2.76,0,0,0,4.12,16.3a5.31,5.31,0,0,0,2.54.56A5.44,5.44,0,0,0,9,16.37a2.79,2.79,0,0,0,1.38-1.21,5.32,5.32,0,0,0,.36-2.24,5.52,5.52,0,0,0-.64-3A10.55,10.55,0,0,0,7,7.48Z" transform="translate(-2.31 -2.03)"/><path class="cls-2" d="M19.66,9.3a7.76,7.76,0,0,0-.33-2.54A2.89,2.89,0,0,0,18,5.28a4.54,4.54,0,0,0-2.37-.59,4.49,4.49,0,0,0-2.37.59A2.9,2.9,0,0,0,12,6.63a6.41,6.41,0,0,0-.3,2.24v3.31a7.47,7.47,0,0,0,.36,2.63,2.83,2.83,0,0,0,1.24,1.44,4.71,4.71,0,0,0,2.38.51,4.66,4.66,0,0,0,2-.37A3.15,3.15,0,0,0,19,15.29a3.36,3.36,0,0,0,.59-1.43,18.31,18.31,0,0,0,.1-2.1H16.5v1.39a3.91,3.91,0,0,1-.13,1.23.48.48,0,0,1-.49.33.5.5,0,0,1-.47-.31,2.15,2.15,0,0,1-.16-.94V8a2.82,2.82,0,0,1,.11-1,.41.41,0,0,1,.41-.22A.42.42,0,0,1,16.2,7a2.64,2.64,0,0,1,.11,1V9.3Z" transform="translate(-2.31 -2.03)"/><path class="cls-2" d="M28,5.16a2.63,2.63,0,0,0-1.59-.47,3.06,3.06,0,0,0-1.14.21,3.19,3.19,0,0,0-1,.63V2.33H20.72V16.56h3.55V8.24a4,4,0,0,1,.11-1.19.49.49,0,0,1,.89,0,5.11,5.11,0,0,1,.1,1.31v8.21h3.55v-8a11.65,11.65,0,0,0-.15-2.26A1.9,1.9,0,0,0,28,5.16Z" transform="translate(-2.31 -2.03)"/><rect class="cls-2" x="45.41" y="0.3" width="3.66" height="14.23"/><path class="cls-2" d="M41.08,5.33A5.56,5.56,0,0,0,39,5.75a5.58,5.58,0,0,1,0,10.32A5.58,5.58,0,1,0,41.08,5.33Z" transform="translate(-2.31 -2.03)"/><path class="cls-2" d="M41.08,10.92a5.61,5.61,0,1,0-4.92,5.54A5.58,5.58,0,0,0,41.08,10.92Z" transform="translate(-2.31 -2.03)"/></g></svg>